<svg viewBox="0 0 156 128" xmlns="http://www.w3.org/2000/svg"><g fill-rule="nonzero" fill="none"><path fill="#DADCDB" d="M2.94 45.95l-.521.054-.3.134-.035.016v-.751h.228zM.858 45.403v.751l-.036-.016-.305-.136-.515-.052.628-.547z"/><path fill="#C9C9C9" d="M2.584 46.004l-.446.134-.054.016v-.751h.125zM1.017 45.403v.751l-.052-.016-.448-.136.366-.6zM1.644 44.742v.437c0 .017.118.032.25.032s.25-.015.25-.032v-.437c0-.017-.118-.031-.25-.031s-.25.014-.25.031z"/><path d="M1.777 46.854c0 .373-.112.675-.25.675s-.25-.302-.25-.675h.5z" fill="#24C3FF"/><path fill="#C9C9C9" d="M2.08 46.216h1v1h-1z"/><path fill="#E8E8E8" d="M1.768 45.007v1.552l-.087.13h-.427l-.088-.13v-1.552l.09-.07.211-.166.213.166z"/><path fill="#DADCDB" d="M1.967 45.007v1.552l-.145.13h-.355V44.77l.353.166z"/><path d="M2.605 46.372c0 .276-.118.5-.25.5-.133 0-.25-.225-.25-.5h.5z" fill="#24C3FF"/><path fill="#DADCDB" d="M1.768 46.44v-1.146l.316.109.315.756-.58.259z"/><path fill="#C9C9C9" d="M1.768 46.44v-1.048l.5.01v1.016z"/><path fill="#C9C9C9" d="M1.796 46.347l-.004-.01.487-.223-.194-.487.01-.004.197.497zM.73 46.216h1v1h-1z"/><path d="M.76 46.372c0 .276.118.5.25.5.134 0 .25-.225.25-.5h-.5z" fill="#24C3FF"/><path fill="#DADCDB" d="M1.166 46.44v-1.146l-.315.109-.315.756.58.259z"/><path fill="#C9C9C9" d="M1.616 46.44v-1.06l-.5.023v1.015z"/><path fill="#C9C9C9" d="M1.148 46.347l-.495-.227.197-.497.01.004-.194.487.487.222z"/><path d="M1.785 46.624l-.037-.412-.003-.004c-.136-.112-.284-.112-.42 0l-.003.004-.037.412c.161-.158.339-.158.5 0z" fill="#FFF"/><path fill="#C9C9C9" d="M1.26 46.686h1v1h-1zM1.25 45.599c-.004-.18-.004-.352-.004-.536v-.004l.003-.001c.051-.024.093-.058.138-.093.035-.028.07-.056.112-.08l.003-.003.003.002c.04.027.08.058.119.087.038.029.08.059.12.086h.002v.003c0 .183 0 .357-.002.537h-.01v-.533c-.04-.027-.078-.057-.116-.085-.039-.029-.077-.058-.117-.084-.038.024-.073.05-.107.077a.753.753 0 0 1-.137.093c0 .182 0 .354.005.533l-.012.001z"/><path fill="#24C3FF" d="M1.36 46.546h1v1h-1z"/><path fill="#24C3FF" d="M1.36 46.486h1v1h-1z"/><g><path fill="#DADCDB" d="M6.992 45.244l-.52.054-.3.134-.035.016v-.751h.228zM4.91 44.697v.751l-.035-.016-.305-.136-.515-.052.627-.547z"/><path fill="#C9C9C9" d="M6.637 45.298l-.447.134-.053.016v-.751h.125zM5.07 44.697v.751l-.053-.016-.447-.136.365-.599zM5.697 44.036v.437c0 .017.117.032.25.032.132 0 .25-.015.25-.032v-.437c0-.016-.118-.031-.25-.031-.133 0-.25.015-.25.031z"/><path d="M5.83 46.148c0 .373-.112.676-.25.676s-.25-.303-.25-.676h.5z" fill="#24C3FF"/><path fill="#C9C9C9" d="M6.133 45.51h1v1h-1z"/><path fill="#E8E8E8" d="M5.821 44.301v1.553l-.087.128h-.427l-.089-.128V44.3l.09-.07.212-.166.213.167z"/><path fill="#DADCDB" d="M6.02 44.301v1.553l-.145.128H5.52v-1.917l.353.167z"/><path d="M6.657 45.666c0 .277-.117.5-.25.5s-.25-.225-.25-.5h.5z" fill="#24C3FF"/><path fill="#DADCDB" d="M5.821 45.734v-1.146l.316.109.315.756-.58.259z"/><path fill="#C9C9C9" d="M5.821 45.734v-1.048l.5.011v1.015z"/><path fill="#C9C9C9" d="M5.848 45.641l-.003-.01.487-.223-.194-.487.009-.004.198.497zM4.783 45.51h1v1h-1z"/><path d="M4.813 45.666c0 .277.118.5.25.5.133 0 .25-.225.25-.5h-.5z" fill="#24C3FF"/><path fill="#DADCDB" d="M5.218 45.734v-1.146l-.314.109-.315.756.58.259z"/><path fill="#C9C9C9" d="M5.668 45.734v-1.06l-.5.023v1.015z"/><path fill="#C9C9C9" d="M5.201 45.641l-.496-.227.198-.497.01.004-.194.487.486.222z"/><path d="M5.837 45.918l-.037-.412-.003-.004c-.136-.112-.283-.112-.42 0l-.002.004-.038.412c.162-.158.34-.158.5 0z" fill="#FFF"/><path fill="#C9C9C9" d="M5.313 45.98h1v1h-1zM5.303 44.893c-.005-.18-.005-.352-.005-.536v-.004h.004c.05-.025.093-.059.138-.094.034-.027.07-.056.111-.08l.004-.003.002.002.12.087c.038.03.079.059.119.086l.002.001v.002l-.001.537h-.011l.001-.533c-.04-.027-.078-.057-.117-.085-.038-.028-.077-.058-.116-.084-.039.024-.073.05-.107.077a.753.753 0 0 1-.138.093c0 .182 0 .355.005.533l-.01.001z"/><path fill="#24C3FF" d="M5.413 45.84h1v1h-1z"/><path fill="#24C3FF" d="M5.413 45.78h1v1h-1z"/></g><g><path fill="#DADCDB" d="M5.887 48.42l-.52.055-.3.133-.036.017v-.752h.228zM3.805 47.873v.752l-.036-.017-.304-.136-.515-.052.627-.547z"/><path fill="#C9C9C9" d="M5.531 48.475l-.446.133-.054.017v-.752h.126zM3.965 47.873v.752l-.053-.017-.447-.136.365-.599zM4.591 47.213v.437c0 .016.118.031.25.031.133 0 .25-.015.25-.031v-.437c0-.017-.117-.032-.25-.032-.132 0-.25.015-.25.032z"/><path d="M4.725 49.324c0 .374-.113.676-.25.676-.138 0-.25-.302-.25-.676h.5z" fill="#24C3FF"/><path fill="#C9C9C9" d="M5.027 48.686h1v1h-1z"/><path fill="#E8E8E8" d="M4.716 47.478v1.552l-.088.129h-.426l-.089-.129v-1.552l.09-.07.212-.167.212.167z"/><path fill="#DADCDB" d="M4.915 47.478v1.552l-.145.129h-.355V47.24l.353.167z"/><path d="M5.552 48.842c0 .277-.117.5-.25.5s-.25-.224-.25-.5h.5z" fill="#24C3FF"/><path fill="#DADCDB" d="M4.716 48.91v-1.145l.315.108.316.757-.581.258z"/><path fill="#C9C9C9" d="M4.716 48.91v-1.047l.5.01v1.015z"/><path fill="#C9C9C9" d="M4.743 48.817l-.003-.01.486-.222-.193-.487.009-.005.198.498zM3.677 48.686h1v1h-1z"/><path d="M3.708 48.842c0 .277.117.5.25.5s.25-.224.25-.5h-.5z" fill="#24C3FF"/><path fill="#DADCDB" d="M4.113 48.91v-1.145l-.314.108-.316.757.58.258z"/><path fill="#C9C9C9" d="M4.563 48.91v-1.059l-.5.022v1.015z"/><path fill="#C9C9C9" d="M4.096 48.817l-.496-.226.197-.498.01.005-.193.487.486.222z"/><path d="M4.732 49.095l-.037-.413-.003-.004c-.136-.111-.284-.111-.42 0l-.002.004-.038.413c.161-.158.339-.158.5 0z" fill="#FFF"/><path fill="#C9C9C9" d="M4.207 49.156h1v1h-1zM4.198 48.07c-.005-.18-.005-.352-.005-.537v-.003l.004-.001c.05-.024.093-.058.137-.094.035-.027.071-.055.112-.08l.004-.003.002.003c.04.027.08.058.12.086.038.03.079.06.118.086l.003.002v.002l-.001.536H4.68c.002-.178.002-.35.002-.533-.04-.027-.078-.056-.117-.085-.038-.028-.077-.058-.117-.084-.038.024-.073.051-.106.077a.753.753 0 0 1-.138.094c0 .182 0 .354.005.532l-.011.002z"/><path fill="#24C3FF" d="M4.307 49.016h1v1h-1z"/><path fill="#24C3FF" d="M4.307 48.956h1v1h-1z"/></g><g><path fill="#DADCDB" d="M151.81 22.789l-.498.054-.286.133-.034.017v-.75h.218zM149.82 22.243v.75l-.034-.017-.291-.135-.493-.052.6-.546z"/><path fill="#C9C9C9" d="M151.492 22.843l-.446.133-.054.017v-.75h.125zM149.995 22.243v.75l-.053-.017-.447-.135.365-.598zM150.572 21.584v.437c0 .016.117.031.25.031.132 0 .25-.015.25-.031v-.437c0-.017-.118-.032-.25-.032-.133 0-.25.015-.25.032z"/><path d="M150.72 23.69c0 .373-.111.675-.25.675-.137 0-.25-.302-.25-.674h.5z" fill="#24C3FF"/><path fill="#C9C9C9" d="M150.99 23.058h1v1h-1z"/><path fill="#E8E8E8" d="M150.69 21.848v1.55l-.083.128h-.408l-.085-.129v-1.549l.086-.07.202-.166.204.167z"/><path fill="#DADCDB" d="M150.902 21.848v1.55l-.144.128h-.356v-1.914l.354.167z"/><path d="M151.512 23.21c0 .277-.117.5-.25.5s-.25-.225-.25-.5h.5z" fill="#24C3FF"/><path fill="#DADCDB" d="M150.69 23.278v-1.143l.302.108.302.755-.556.258z"/><path fill="#C9C9C9" d="M150.69 23.278v-1.045l.5.01v1.013z"/><path fill="#C9C9C9" d="M150.717 23.185l-.004-.01.487-.222-.194-.486.01-.005.197.497zM149.7 23.058h1v1h-1z"/><path d="M149.727 23.21c0 .277.118.5.25.5.133 0 .25-.225.25-.5h-.5z" fill="#24C3FF"/><path fill="#DADCDB" d="M150.114 23.278v-1.143l-.3.108-.302.755.554.258z"/><path fill="#C9C9C9" d="M150.566 23.278v-1.057l-.5.022v1.013z"/><path fill="#C9C9C9" d="M150.12 23.185l-.496-.226.197-.497.01.005-.194.486.487.221z"/><path d="M150.728 23.463l-.037-.413-.003-.003c-.136-.112-.284-.112-.42 0l-.002.003-.038.413c.161-.158.339-.158.5 0z" fill="#FFF"/><path fill="#C9C9C9" d="M150.21 23.528h1v1h-1zM150.196 22.439c-.005-.18-.005-.351-.005-.535V21.9l.003-.001c.051-.024.093-.058.138-.093.035-.027.07-.056.112-.08l.003-.003.003.003c.04.027.08.057.119.086.039.03.08.059.12.086h.002v.003c0 .183 0 .356-.002.536h-.01v-.532c-.04-.027-.078-.057-.116-.085-.039-.028-.077-.058-.117-.084-.038.024-.073.051-.106.077a.754.754 0 0 1-.138.093c0 .182 0 .354.005.532h-.011z"/><path fill="#24C3FF" d="M150.3 23.378h1v1h-1z"/><path fill="#24C3FF" d="M150.3 23.328h1v1h-1z"/><g><path fill="#DADCDB" d="M155.684 23.846l-.498.054-.286.133-.034.016v-.75h.218zM153.694 23.3v.75l-.034-.017-.291-.136-.493-.051.6-.546z"/><path fill="#C9C9C9" d="M155.366 23.9l-.446.133-.054.016v-.75h.125zM153.869 23.3v.75l-.053-.017-.447-.136.365-.597zM154.446 22.64v.437c0 .017.117.032.25.032.132 0 .25-.015.25-.032v-.436c0-.017-.118-.032-.25-.032-.133 0-.25.015-.25.032z"/><path d="M154.595 24.747c0 .373-.112.675-.25.675s-.25-.302-.25-.675h.5z" fill="#24C3FF"/><path fill="#C9C9C9" d="M154.864 24.114h1v1h-1z"/><path fill="#E8E8E8" d="M154.564 22.905v1.549l-.083.128h-.408l-.085-.128v-1.55l.086-.069.202-.166.204.166z"/><path fill="#DADCDB" d="M154.776 22.905v1.549l-.144.128h-.356V22.67l.354.166z"/><path d="M155.386 24.266c0 .277-.117.5-.25.5s-.25-.224-.25-.5h.5z" fill="#24C3FF"/><path fill="#DADCDB" d="M154.564 24.335V23.19l.302.109.302.754-.556.258z"/><path fill="#C9C9C9" d="M154.564 24.335v-1.046l.5.01v1.013z"/><path fill="#C9C9C9" d="M154.59 24.242l-.003-.011.487-.222-.194-.485.01-.005.197.496zM153.574 24.114h1v1h-1z"/><path d="M153.601 24.266c0 .277.117.5.25.5s.25-.224.25-.5h-.5z" fill="#24C3FF"/><path fill="#DADCDB" d="M153.988 24.335V23.19l-.3.109-.302.754.554.258z"/><path fill="#C9C9C9" d="M154.44 24.335v-1.058l-.5.023v1.012z"/><path fill="#C9C9C9" d="M153.994 24.242l-.496-.227.197-.496.01.005-.194.485.487.222z"/><path d="M154.602 24.52l-.037-.413-.003-.004c-.136-.112-.284-.112-.42 0l-.002.004-.038.412c.161-.158.339-.158.5 0z" fill="#FFF"/><path fill="#C9C9C9" d="M154.084 24.584h1v1h-1zM154.07 23.495c-.005-.179-.005-.35-.005-.535v-.003l.003-.002c.051-.023.093-.057.138-.093.035-.027.07-.055.112-.08l.003-.002.003.002c.04.027.08.058.119.086.038.03.08.06.12.086l.002.001v.003c0 .183 0 .356-.002.535h-.01v-.532c-.04-.027-.078-.056-.116-.084-.039-.029-.077-.058-.117-.084-.038.023-.073.05-.106.076a.754.754 0 0 1-.138.094c0 .181 0 .353.005.531l-.011.001z"/><path fill="#24C3FF" d="M154.174 24.434h1v1h-1z"/><path fill="#24C3FF" d="M154.174 24.384h1v1h-1z"/></g></g><g transform="translate(24.12 .5)"><g fill="#C9C9C9"><path d="M76.538 10.075v8.108c0 .31.275.586.584.586.31 0 .584-.276.584-.586v-8.108a.603.603 0 0 0-.584-.587.56.56 0 0 0-.584.587zM82.105 13.87v8.108c0 .31.275.587.585.587.309 0 .584-.276.584-.587V13.87a.603.603 0 0 0-.584-.587.603.603 0 0 0-.585.587zM87.88 19.321v8.108c0 .311.274.587.583.587.31 0 .585-.276.585-.587v-8.108a.603.603 0 0 0-.585-.586.58.58 0 0 0-.584.586zM54.302.794v11.282c0 .31.275.586.584.586.31 0 .584-.276.584-.586V.794a.603.603 0 0 0-.584-.587c-.31.035-.584.276-.584.587z"/></g><g fill="#C9C9C9"><path d="M26.223 10.075v8.108c0 .31-.275.586-.584.586a.603.603 0 0 1-.585-.586v-8.108c0-.31.275-.587.585-.587a.56.56 0 0 1 .584.587zM20.655 13.87v8.108c0 .31-.275.587-.584.587a.603.603 0 0 1-.584-.587V13.87c0-.31.275-.587.584-.587.31 0 .584.276.584.587zM14.881 19.321v8.108c0 .311-.275.587-.584.587a.603.603 0 0 1-.584-.587v-8.108c0-.31.275-.586.584-.586.31 0 .584.276.584.586zM48.459 3.968v8.108c0 .31-.275.586-.584.586a.603.603 0 0 1-.585-.586V3.968c0-.31.275-.587.585-.587.31 0 .584.276.584.587z"/></g><path d="M44.541 107.268c0 10.903-2.68 19.735-5.98 19.735-3.3 0-5.98-8.832-5.98-19.735h11.96z" fill="#24C3FF"/><path fill="#C9C9C9" d="M32.172 102.472h12.75v3.66h-12.75z"/><path d="M70.351 107.268c0 10.903-2.68 19.735-5.98 19.735-3.299 0-5.98-8.832-5.98-19.735h11.96z" fill="#24C3FF"/><path fill="#C9C9C9" d="M57.982 102.472h12.75v3.66h-12.75z"/><path d="M96.437 74.974c-4.227 6.728-11.101 14.25-19.83 19.735v5.314a3.233 3.233 0 0 1-3.231 3.243H29.488a3.233 3.233 0 0 1-3.23-3.243v-4.83c-8.009-5.073-14.195-12.008-18.663-18.46-20.277-29.189 3.06-66.865 42.376-67.624h1.478c7.286.034 14.194 1.345 20.483 3.657 27.77 10.247 38.94 39.23 24.505 62.208z" fill="#E8E8E8"/><path d="M96.437 74.974c-4.227 6.728-11.101 14.732-19.83 20.218v4.83a3.233 3.233 0 0 1-3.231 3.244H51.415V9.109c7.286.034 14.194 1.345 20.483 3.657 27.804 10.247 38.973 39.23 24.539 62.208z" fill="#DADCDB"/><path fill="#DADCDB" d="M26.26 95.19h31.72v3.86H26.26z"/><path fill="#C9C9C9" d="M51.45 95.19h25.19v3.86H51.45zM66.777 34.916V65.21H55.883l-1.581-3.9h-5.327l-1.581 3.9H36.499V34.95c0-3.381 1.856-6.452 4.88-7.97h.035c3.093-1.587 6.564-2.415 10.035-2.45h.206c3.54 0 7.08.863 10.242 2.484 3.024 1.484 4.88 4.52 4.88 7.901z"/><path d="M51.449 24.497V61.31h-2.474l-1.581 3.899H36.499V34.95c0-3.381 1.856-6.452 4.88-7.97h.035c3.093-1.622 6.564-2.45 10.035-2.484z" fill="#DADCDB"/><path d="M65.196 34.916v28.706h-8.248l-1.581-3.898h-7.458l-1.58 3.898h-8.25V34.916c0-2.76 1.547-5.313 4.022-6.555 2.921-1.518 6.152-2.277 9.348-2.312a20.74 20.74 0 0 1 9.76 2.312 7.202 7.202 0 0 1 2.922 2.726 7.382 7.382 0 0 1 1.065 3.83z" fill="#DADCDB"/><path d="M51.449 26.084v33.674h-3.54l-1.58 3.899h-8.25V34.951c0-2.76 1.547-5.313 4.022-6.555 2.956-1.519 6.152-2.312 9.348-2.312z" fill="#E8E8E8"/><path d="M60.522 43.542l-1.34-5.658-.103-.035a24.77 24.77 0 0 0-14.847 0l-.103.035-1.34 5.658a24.93 24.93 0 0 1 17.733 0z" fill="#FFF"/><path d="M28.8 91.362c-6.186-3.898-11.822-9.488-16.771-16.595C4.124 63.38 3.127 49.89 9.314 37.746 16.6 23.393 32.237 14.284 50.143 13.973h1.306c6.392.035 12.613 1.14 18.421 3.278 12.545 4.624 21.962 13.836 25.81 25.29 3.506 10.317 2.166 21.22-3.78 30.673-4.33 6.866-10.791 13.318-17.802 17.734l-.172-.276c6.942-4.381 13.403-10.799 17.7-17.63 5.876-9.385 7.217-20.184 3.745-30.431-3.849-11.352-13.197-20.495-25.638-25.084-5.774-2.139-11.96-3.243-18.318-3.277h-1.306c-17.769.345-33.303 9.384-40.52 23.6-6.118 12.04-5.121 25.427 2.715 36.71 4.914 7.073 10.516 12.628 16.668 16.492l-.172.31z" fill="#C9C9C9"/><path fill="#C9C9C9" d="M66.78 40.13h3.3v2.21h-3.3zM66.78 45.34h3.3v2.21h-3.3zM66.78 50.55h3.3v2.21h-3.3zM66.78 55.76h3.3v2.21h-3.3z"/><path fill="#DADCDB" d="M33.2 40.13h3.3v2.21h-3.3zM33.2 45.34h3.3v2.21h-3.3zM33.2 50.55h3.3v2.21h-3.3zM33.2 55.76h3.3v2.21h-3.3z"/><path fill="#24C3FF" d="M48.42 54h6.46v1.41h-6.46zM48.42 51.65h6.46v1.41h-6.46z"/><g transform="translate(33.68 88.671)" fill="#C9C9C9"><ellipse cx="1.13" cy="3.69" rx="1" ry="1"/><ellipse cx="4.78" cy="3.69" rx="1" ry="1"/><ellipse cx="8.59" cy="3.69" rx="1" ry="1"/><ellipse cx="2.85" cy="1" rx="1" ry="1"/><ellipse cx="6.7" cy="1" rx="1" ry="1"/></g><g transform="translate(59.457 88.671)" fill="#C9C9C9"><ellipse cx="1.17" cy="3.69" rx="1" ry="1"/><ellipse cx="4.81" cy="3.69" rx="1" ry="1"/><ellipse cx="8.63" cy="3.69" rx="1" ry="1"/><ellipse cx="2.89" cy="1" rx="1" ry="1"/><ellipse cx="6.74" cy="1" rx="1" ry="1"/></g><path fill="#C9C9C9" d="M64.543 92.363H64.2V72.49h-2.716v-7.28h.31v6.97h2.75zM38.698 92.363h-.343V72.179h2.75v-6.97h.309v7.28h-2.716z"/><path d="M62.86 74.698a.69.69 0 0 1 0-1.38.69.69 0 0 1 .687.69c-.035.38-.344.69-.688.69zm0-1.035a.382.382 0 0 0-.379.38c0 .206.172.379.378.379a.382.382 0 0 0 .378-.38c-.034-.241-.206-.38-.378-.38zM59.25 47.13a.69.69 0 0 1 0-1.38.69.69 0 0 1 0 1.38zm0-1.07a.382.382 0 0 0-.377.38c0 .207.171.38.378.38a.382.382 0 0 0 .378-.38.382.382 0 0 0-.378-.38zM40.004 74.698a.69.69 0 0 1 0-1.38.69.69 0 0 1 0 1.38zm0-1.035a.382.382 0 0 0-.378.38c0 .206.172.379.378.379a.382.382 0 0 0 .378-.38c-.034-.241-.171-.38-.378-.38zM62.21 28.02h1v33.67h-1z" fill="#C9C9C9"/><ellipse fill="#24C3FF" cx="86.57" cy="35.64" rx="1.31" ry="1.31"/><ellipse fill="#24C3FF" cx="86.57" cy="71.63" rx="1.31" ry="1.31"/><ellipse fill="#24C3FF" cx="18.18" cy="35.64" rx="1.31" ry="1.31"/><ellipse fill="#24C3FF" cx="18.18" cy="71.63" rx="1.31" ry="1.31"/></g></g></svg>