<svg viewBox="0 0 32 80" xmlns="http://www.w3.org/2000/svg"><g fill-rule="nonzero" fill="none"><path d="M30 .414v10.172c0 .22.235.414.5.414s.5-.195.5-.414V.414c0-.22-.235-.414-.5-.414s-.5.17-.5.414zM28 4.38v5.24c0 .202.235.38.5.38s.5-.178.5-.38V4.38c0-.202-.235-.38-.5-.38-.294 0-.5.156-.5.38z" fill="#C9C9C9"/><path fill="#C9C9C9" d="M28 9h4v2h-4z"/><path d="M28 71c0 4.981-.469 9-1 9-.563 0-1-4.043-1-9h2z" fill="#24C3FF"/><path fill="#DADCDB" d="M24 71V30l4.217 3.358L30 34.753v33.646L28.24 71z"/><path fill="#E8E8E8" d="M29 71V36l2 1.389V68.41L29.024 71z"/><path fill="#C9C9C9" d="M26 53h1v16h-1zM26 49h1v3h-1z"/><path fill="#24C3FF" d="M24 46h2v1h-2zM24 45h2v1h-2z"/><path fill="#C9C9C9" d="M11 64h3v2h-3z"/><path d="M3 71c0 4.981.469 9 1 9 .563 0 1-4.043 1-9H3zM12 67c0 4.981.469 9 1 9 .563 0 1-4.043 1-9h-2z" fill="#24C3FF"/><path fill="#C9C9C9" d="M16 64h3v2h-3z"/><path d="M16 67c0 4.981.469 9 1 9 .563 0 1-4.043 1-9h-2z" fill="#24C3FF"/><path fill="#DADCDB" d="M6 71V30l-4.217 3.358L0 34.753v33.646L1.76 71z"/><path fill="#E8E8E8" d="M2 71V36l-2 1.389V68.41L1.976 71z"/><path fill="#C9C9C9" d="M5 53h1v16H5zM5 49h1v3H5z"/><path fill="#24C3FF" d="M4 46h2v1H4zM4 45h2v1H4z"/><path fill="#C9C9C9" d="M6 58h18v3H6z"/><path fill="#DADCDB" d="M11 24h7v40h-7z"/><path d="M18 24v6.585a14.98 14.98 0 0 1-7 0V24h7z" fill="#C9C9C9"/><circle fill="#DADCDB" cx="15" cy="15" r="14"/><path d="M15 27C8.381 27 3 21.619 3 15S8.381 3 15 3s12 5.381 12 12-5.381 12-12 12zm0-23.762c-6.5 0-11.786 5.286-11.786 11.786S8.5 26.81 15 26.81s11.786-5.286 11.786-11.786S21.5 3.238 15 3.238z" fill="#C9C9C9"/><path d="M15.5 25C9.71 25 5 20.29 5 14.5S9.71 4 15.5 4 26 8.71 26 14.5 21.29 25 15.5 25zm0-20.766c-5.672 0-10.29 4.618-10.29 10.29 0 5.671 4.618 10.289 10.29 10.289 5.672 0 10.29-4.618 10.29-10.29 0-5.671-4.618-10.289-10.29-10.289z" fill="#C9C9C9"/><path fill="#E8E8E8" d="M14 33h2v29h-2z"/><path d="M20 16l-.753-3.313-.07-.024a13.494 13.494 0 0 0-8.353 0l-.071.024L10 16c3.247-1.3 6.8-1.3 10 0z" fill="#FFF"/><path fill="#24C3FF" d="M13 20h4v1h-4zM13 18h4v1h-4z"/><path d="M19 11c-.543 0-1-.457-1-1 0-.543.457-1 1-1 .543 0 1 .457 1 1 0 .543-.429 1-1 1zm0-1.743c-.4 0-.743.343-.743.743 0 .4.343.743.743.743.4 0 .743-.343.743-.743 0-.4-.314-.743-.743-.743z" fill="#C9C9C9"/></g></svg>