<svg viewBox="0 0 45 47" xmlns="http://www.w3.org/2000/svg"><g fill="none"><path fill="#C9C9C9" d="M36 34h2v2h-2z"/><path d="M32 40c0 3.874-.234 7-.5 7-.281 0-.5-3.144-.5-7h1zm5-4c0 3.874-.234 7-.5 7-.281 0-.5-3.144-.5-7h1z" fill="#24C3FF"/><path fill="#C9C9C9" d="M40 32h2v2h-2z"/><path d="M41 35c0 3.874-.234 7-.5 7-.281 0-.5-3.144-.5-7h1z" fill="#24C3FF"/><path fill="#C9C9C9" d="M36 15l1 .66V21h-1zm2 2l1 .66V23h-1zM30 .658v5.684c0 .363.224.658.5.658s.5-.295.5-.658V.658C31 .295 30.776 0 30.5 0s-.5.295-.5.658z"/><path fill="#DADCDB" d="M30 40V5l3.52 2.574L35 8.67v29.322L33.538 40zm5-4V20h4.991L45 31.65l-9.203 4.004z"/><path fill="#C9C9C9" d="M27.435 28.208l-.05-.208L29 29.15V35l-3-1.736zM35 36V20h1v15.654z"/><path fill="#E8E8E8" d="M33 39V9l1 1.06v26.964L33.012 39z"/><path fill="#C9C9C9" d="M35.053 34L35 33.856l7.786-3.379-3.1-7.423.143-.054L43 30.567zM31 23h1v15h-1zm0-3h1v2h-1z"/><circle fill="#C9C9C9" cx="41.5" cy="30.5" r="1"/><path fill="#24C3FF" d="M30 18h2v1h-2zm0-1h2v1h-2z"/><path fill="#C9C9C9" d="M7 34h2v2H7z"/><path d="M13 40c0 3.874.234 7 .5 7 .281 0 .5-3.144.5-7h-1zm-5-4c0 3.874.234 7 .5 7s.5-3.144.5-7H8z" fill="#24C3FF"/><path fill="#C9C9C9" d="M3 32h2v2H3z"/><path d="M4 35c0 3.874.234 7 .5 7s.5-3.144.5-7H4z" fill="#24C3FF"/><path fill="#C9C9C9" d="M9 15l-1 .66V21h1zm-2 2l-1 .66V23h1zM14 .658v5.684c0 .363.224.658.5.658s.5-.295.5-.658V.658C15 .295 14.776 0 14.5 0s-.5.295-.5.658z"/><path fill="#DADCDB" d="M16 40V5l-3.533 2.574L11 8.67v29.322L12.45 40zm-6-4V20H4.991L0 31.65l9.203 4.004z"/><path fill="#C9C9C9" d="M17.565 28.208l.05-.208L16 29.15V35l3-1.736zM11 36V20h-1v15.654z"/><path fill="#E8E8E8" d="M12 39V9l-1 1.06v26.964L11.988 39z"/><path fill="#C9C9C9" d="M9.929 34L2 30.567 5.154 23l.142.054-3.082 7.423L10 33.857zM14 23h1v15h-1zm0-3h1v2h-1z"/><circle fill="#C9C9C9" cx="3.5" cy="30.5" r="1"/><path fill="#24C3FF" d="M14 18h2v1h-2zm0-1h2v1h-2z"/><path d="M17 27.403l3.706-12.676c.147-.515.46-.937.863-1.25A2.439 2.439 0 0 1 23 13c1.064 0 2 .698 2.294 1.708L29 27.384 26.174 36h-6.33L17 27.403z" fill="#DADCDB"/><path d="M17 27.391l3.706-12.666c.147-.514.46-.936.863-1.248A2.439 2.439 0 0 1 23 13v23h-3.174L17 27.391z" fill="#E8E8E8"/><path d="M26 22l-.448-1.65-.036-.015a9.612 9.612 0 0 0-5.032 0l-.036.016L20 22a9.51 9.51 0 0 1 6 0z" fill="#FFF"/><path fill="#24C3FF" d="M20 31h5v1h-5zm0-1h5v1h-5z"/></g></svg>