<svg viewBox="0 0 124 201" xmlns="http://www.w3.org/2000/svg"><g fill="none"><path fill="#DADCDB" d="M50.233 0L38 62.257 49.553 93h25.894L87 62.257 74.767 0z"/><path fill="#E8E8E8" d="M50 0L38 62.257 49.333 93H62V0z"/><path fill="#24C3FF" d="M52 77h20v2H52zm0-4h20v2H52z"/><path fill="#E8E8E8" d="M75 145.972L61.966 158 49 145.972V93h26z"/><path fill="#DADCDB" d="M76 145.972L63 158V93h13z"/><path d="M71 115l-1.446-4.935-.137-.056a31.551 31.551 0 0 0-15.834 0l-.137.056L52 115c6.127-1.907 12.873-1.907 19 0z" fill="#FFF"/><path fill="#C9C9C9" d="M97 167h8v7h-8z"/><path d="M104 176c0 13.829-1.111 25-2.5 25S99 189.829 99 176h5z" fill="#24C3FF"/><path fill="#C9C9C9" d="M108 157h8v7h-8z"/><path d="M115 167c0 13.829-1.111 25-2.5 25s-2.5-11.171-2.5-25h5z" fill="#24C3FF"/><path d="M109 72.148v15.704c0 .604-.632 1.148-1.5 1.148-.79 0-1.5-.483-1.5-1.148V72.148c0-.604.632-1.148 1.5-1.148.79.06 1.5.544 1.5 1.148zm9 5v15.704c0 .604-.632 1.148-1.5 1.148-.79 0-1.5-.483-1.5-1.148V77.148c0-.604.632-1.148 1.5-1.148s1.5.544 1.5 1.148z" fill="#C9C9C9"/><path fill="#24C3FF" d="M103 120v51l9-6.502V120z"/><path fill="#C9C9C9" d="M110 115v51l9-6.502V115zm-34-3l19 7.14V131H76z"/><path fill="#DADCDB" d="M94 79v99l8.725-6.524v-37.05L124 115.452V84.626z"/><path fill="#C9C9C9" d="M97.613 161H97v-28.585l21.387-18.74V87H119v26.855l-21.387 18.798z"/><path fill="#C9C9C9" d="M112 95h8v2h-8zm0 4h8v2h-8zm-92 68h8v7h-8z"/><path d="M22 176c0 13.829 1.111 25 2.5 25s2.5-11.171 2.5-25h-5z" fill="#24C3FF"/><path fill="#C9C9C9" d="M9 157h8v7H9z"/><path d="M11 167c0 13.829 1.111 25 2.5 25s2.5-11.171 2.5-25h-5z" fill="#24C3FF"/><path d="M16 72.148v15.704c0 .604.632 1.148 1.5 1.148.79 0 1.5-.483 1.5-1.148V72.148c0-.604-.632-1.148-1.5-1.148-.79.06-1.5.544-1.5 1.148zm-9 5v15.704C7 93.456 7.632 94 8.5 94c.79 0 1.5-.483 1.5-1.148V77.148C10 76.544 9.368 76 8.5 76S7 76.544 7 77.148z" fill="#C9C9C9"/><path fill="#24C3FF" d="M24 120v51l-9-6.502V120z"/><path fill="#C9C9C9" d="M16 115v51l-9-6.502V115zm34-3l-19 7.14V131h19z"/><path fill="#DADCDB" d="M30 79v99l-8.725-6.524v-37.05L0 115.452V84.626z"/><path fill="#C9C9C9" d="M28 161h-.611v-28.347L6 113.855V87h.679v26.676L28 132.415z"/><path fill="#C9C9C9" d="M6 95h8v2H6zm0 4h8v2H6z"/></g></svg>