<svg viewBox="0 0 59 51" xmlns="http://www.w3.org/2000/svg"><g fill="none"><path fill="#DADCDB" d="M59 22.464l-10.343.94-5.941 2.31L42 26V13h4.532zM17 13v13l-.716-.286-6.05-2.35L0 22.463 12.468 13z"/><path fill="#C9C9C9" d="M49 23.404l-6.248 2.31L42 26V13h1.756zM17 13v13l-.74-.286-6.26-2.35L15.115 13zM32 .38v5.24c0 .202.235.38.5.38s.5-.178.5-.38V.38c0-.202-.235-.38-.5-.38s-.5.178-.5.38z"/><path d="M32 39c0 6.63-1.569 12-3.5 12S25 45.63 25 39h7z" fill="#24C3FF"/><path fill="#C9C9C9" d="M42 28h3v3h-3z"/><path fill="#E8E8E8" d="M35 5.313v28.336L33.116 36h-9.208L22 33.65V5.312l1.931-1.272L28.5 1l4.592 3.04z"/><path fill="#DADCDB" d="M36 5.313v28.336L34.26 36H30V1l4.24 3.04z"/><path d="M43 31c0 3.874-.234 7-.5 7s-.5-3.144-.5-7h1z" fill="#24C3FF"/><path fill="#DADCDB" d="M35 32V12l6.5 1.897L48 27.093l-11.965 4.515z"/><path fill="#C9C9C9" d="M35 32V13l1 .193v18.4z"/><path fill="#C9C9C9" d="M35.067 29L35 28.81l9.733-3.988-3.876-8.737.179-.085L45 24.928zM14 28h3v3h-3z"/><path d="M15 31c0 3.874.234 7 .5 7s.5-3.144.5-7h-1z" fill="#24C3FF"/><path fill="#DADCDB" d="M24 32V12l-6.489 1.897L11 27.093l11.964 4.515z"/><path fill="#C9C9C9" d="M23 31V12l-1 .402v18.196z"/><path fill="#C9C9C9" d="M23.91 29L14 24.928 17.942 16l.2.085-3.875 8.737L24 28.81z"/><path d="M32 29l-.522-2.474-.042-.023a8.821 8.821 0 0 0-5.872 0l-.042.023L25 29a8.97 8.97 0 0 1 7 0z" fill="#FFF"/><path fill="#C9C9C9" d="M25 36h8v3h-8zm.08-20C25 12.745 25 9.618 25 6.277v-.064l.06-.022c.813-.428 1.488-1.05 2.203-1.692.556-.492 1.132-1.006 1.787-1.456L29.11 3l.039.043c.635.492 1.29 1.05 1.906 1.563A44.32 44.32 0 0 0 32.96 6.17l.04.021v.043c0 3.32 0 6.468-.02 9.723h-.179c.02-3.234.02-6.36.02-9.659-.635-.492-1.25-1.028-1.866-1.542-.615-.514-1.23-1.05-1.866-1.52-.615.428-1.17.92-1.707 1.392-.715.642-1.39 1.242-2.203 1.692 0 3.298 0 6.425.08 9.659l-.18.021z"/><path fill="#24C3FF" d="M27 34h4v1h-4zm0-2h4v1h-4z"/></g></svg>